# xmcd
#
# Track frame offsets:
#	150
#	28522
#	51835
#	76665
#	96890
#	123685
#	147997
#	170667
#	193597
#	216947
#
# Disc length: 3344 seconds
#
# Revision: 2
# Processed by: cddbd v1.5.2PL0 Copyright (c) Steve Scherf et al.
# Submitted via: EZCDAudioConverter 8.0.2.1
#
DISCID=8c0d0e0a
DTITLE=Various Artist - Rumba Bolero
DYEAR=1999
DGENRE=Disco
TTITLE0=Julie - Yêu là chết trong lòng một ít
TTITLE1=Giao Linh - Trả lại thời gian
TTITLE2=Thanh Tuyền - Đò chiều
TTITLE3=Julie - Chiều nay không ai đưa về
TTITLE4=Hương Lan - Nhật ký đời tôi
TTITLE5=Giao Linh - Đám cưới nghèo
TTITLE6=Thiên Trang - Mưa đêm thuognw nhớ
TTITLE7=Kim Tuyến - CHuyến xe lam chiều
TTITLE8=Giao Linh - Không phải tại chúng mình
TTITLE9=Hương Lan - Tấm ảnh ngày xưa
EXTD=
EXTT0=
EXTT1=
EXTT2=
EXTT3=
EXTT4=
EXTT5=
EXTT6=
EXTT7=
EXTT8=
EXTT9=
PLAYORDER=
